<svg xmlns="http://www.w3.org/2000/svg" viewBox="0 0 431.57 187.79"><defs><style>.cls-1{fill:#33495e;}.cls-2{fill:#edbd21;}</style></defs><g id="Layer_2" data-name="Layer 2"><g id="Accueil_ver_2" data-name="Accueil ver 2"><g id="header_copy" data-name="header copy"><path class="cls-1" d="M6.57,110.47V2H23.8V95.35H65.29v15.12Z"/><path class="cls-1" d="M249.75,112.58q-19.8,0-29.89-10.26t-10.1-30.45V2h17.3V67.14q0,14.86,5.46,21.7t17.23,6.84q11.76,0,17.26-6.84t5.49-21.7V2h17.23v69.9q0,20.19-10.06,30.45T249.75,112.58Z"/><path class="cls-1" d="M319.65,110.47V2h17.22v108.5Z"/><path class="cls-1" d="M393.76,112.58a48.07,48.07,0,0,1-14.2-2,50.59,50.59,0,0,1-11.22-4.9,52.42,52.42,0,0,1-8.08-5.89q-3.25-3-5-4.86L364.3,81c1.23,1.27,2.77,2.79,4.64,4.54a49.45,49.45,0,0,0,6.54,5.13,40.22,40.22,0,0,0,8.45,4.24,29.4,29.4,0,0,0,10.29,1.74,24.08,24.08,0,0,0,9.54-1.8,15.62,15.62,0,0,0,6.7-5.33,14.65,14.65,0,0,0,2.5-8.72,15.16,15.16,0,0,0-1.87-7.75,17.75,17.75,0,0,0-5.36-5.63,54,54,0,0,0-8.32-4.57q-4.83-2.16-10.68-4.6a70.65,70.65,0,0,1-8.29-4.17A39.59,39.59,0,0,1,371,48.46a24.31,24.31,0,0,1-5.33-7.56,24,24,0,0,1-2-10,29.18,29.18,0,0,1,2.4-11.68A31.41,31.41,0,0,1,383.37,2.5,35.64,35.64,0,0,1,397,0a40.08,40.08,0,0,1,11.86,1.77,49,49,0,0,1,10.53,4.61,38.69,38.69,0,0,1,7.86,6l-7.5,13.15a34.68,34.68,0,0,0-6-4.83A33,33,0,0,0,406.09,17a27.78,27.78,0,0,0-8.78-1.38,18.46,18.46,0,0,0-9.14,2.1,15.21,15.21,0,0,0-5.75,5.49,14.26,14.26,0,0,0-2,7.4,11,11,0,0,0,1.42,5.75,12.74,12.74,0,0,0,3.88,4.11,32,32,0,0,0,5.75,3.13q3.29,1.41,6.91,2.79,7.15,3,13.24,5.92a51,51,0,0,1,10.56,6.71A26.35,26.35,0,0,1,429.11,68a28.7,28.7,0,0,1,2.46,12.37q0,10.19-4.83,17.39a30.86,30.86,0,0,1-13.35,11A47.65,47.65,0,0,1,393.76,112.58Z"/><path class="cls-1" d="M0,187.79V135.55H1.77v25.26H35.33V135.55h1.78v52.24H35.33V162.4H1.77v25.39Z"/><path class="cls-1" d="M121.2,187.79V135.55h11.21a19.8,19.8,0,0,1,8.61,1.72,12.92,12.92,0,0,1,5.57,4.89,14.08,14.08,0,0,1,2,7.57,14.89,14.89,0,0,1-1.9,7.6,13.56,13.56,0,0,1-5.35,5.13,18.19,18.19,0,0,1-8.14,2l17.54,23.31h-2.28l-17.54-23.31H123v23.31Zm1.78-25h9.43a17,17,0,0,0,7.66-1.62,12,12,0,0,0,5.05-4.54,13,13,0,0,0,1.79-6.89,11.69,11.69,0,0,0-3.89-9.26q-3.9-3.41-10.61-3.41H123Z"/><path class="cls-1" d="M163.5,187.79V135.55h1.77V186.2h23.56v1.59Z"/><path class="cls-1" d="M199.6,187.79l20.33-52.24h1.64l20.33,52.24H240l-7.47-19.32H209l-7.47,19.32Zm10-20.9h22.35L220.75,137.7Z"/><path class="cls-1" d="M268.4,187.79l-21.91-52.24h2l20.58,49.58,20.59-49.58h2l-21.91,52.24Z"/><path class="cls-1" d="M305.94,187.79V135.55h1.78v52.24Z"/><path class="cls-1" d="M326.27,187.79V135.55h1.78V186.2h23.56v1.59Z"/><path class="cls-1" d="M365.69,187.79V135.55h1.77V186.2H391v1.59Z"/><path class="cls-1" d="M405.11,187.79V135.55h24.83v1.58H406.89v23.68h22.29v1.59H406.89v23.8h23.05v1.59Z"/><circle class="cls-1" cx="77.63" cy="161.67" r="21.47"/><circle class="cls-2" cx="140.38" cy="57.27" r="45.26"/></g></g></g></svg>